PathFileType	4	(X/Y/Z)	Patient4_TMGait_0pt4_01_left_18.trc.trc
DataRate	CameraRate	NumFrames	NumMarkers	Units	OrigDataRate	OrigDataStartFrame	OrigNumFrames
40.345821325648	40.345821325648	4	33	mm	40.345821325648	53	       141
Frame#	Time	Sacral			L.Shoulder			Chest			R.Shoulder			Neck			R.ASIS			L.ASIS			R.Thigh.Superior			R.Thigh.Lateral			R.Thigh.Inferior			R.Patella			L.Thigh.Superior			L.Thigh.Lateral			L.Thigh.Inferior			L.Patella			L.Shank.Superior			L.Shank.Lateral			L.Shank.Inferior			R.Shank.Superior			R.Shank.Lateral			R.Shank.Inferior			R.Heel			R.Midfoot.Superior			R.Midfoot.Lateral			R.Toe			L.Heel			L.Midfoot.Lateral			L.Midfoot.Superior			L.Toe			L.Elbow			L.Wrist			R.Elbow			R.Wrist			
		X1	Y1	Z1	X2	Y2	Z2	X3	Y3	Z3	X4	Y4	Z4	X5	Y5	Z5	X6	Y6	Z6	X7	Y7	Z7	X8	Y8	Z8	X9	Y9	Z9	X10	Y10	Z10	X11	Y11	Z11	X12	Y12	Z12	X13	Y13	Z13	X14	Y14	Z14	X15	Y15	Z15	X16	Y16	Z16	X17	Y17	Z17	X18	Y18	Z18	X19	Y19	Z19	X20	Y20	Z20	X21	Y21	Z21	X22	Y22	Z22	X23	Y23	Z23	X24	Y24	Z24	X25	Y25	Z25	X26	Y26	Z26	X27	Y27	Z27	X28	Y28	Z28	X29	Y29	Z29	X30	Y30	Z30	X31	Y31	Z31	X32	Y32	Z32	X33	Y33	Z33	

53	22.328857142857	658.156933969939	1003.898541574096	366.815319402679	841.942475326710	1418.814558263838	167.203573709792	940.599226475378	1366.776658915545	335.834266084676	851.131080856711	1453.256918168401	501.474891365597	815.590334831710	1491.171067105972	326.333278446866	884.803320654191	937.628345116791	487.077408709438	874.216307487436	965.875596735447	213.603462053876	945.042337428402	746.132054868670	454.302312082958	879.458342378548	628.393988760943	518.533940980826	963.480531746123	585.925848996872	437.862626576324	978.296711118294	498.318657037452	447.146771065878	887.071967034272	737.914033683923	229.956491726080	769.618372214259	639.242775366506	171.362016069951	839.397911869998	546.125573360624	225.751945640403	827.814447735458	476.855627592364	231.307982475405	790.210772950990	412.034542909751	225.163057740057	680.167852808474	312.034335855618	182.497031985382	725.403988922436	192.202230654162	244.984716878190	952.489546330022	407.623848336285	456.100362120102	885.545236690474	301.038313935777	519.174968163264	934.552908467541	207.059036952877	460.337255056906	811.836039976327	36.092238140387	432.926974885735	981.059098174510	96.966331466844	469.944773847774	895.219994871738	31.408405426818	507.970370200793	1102.653241448551	49.775181998832	497.620604941718	587.860476492321	43.230133867944	296.844538401082	655.387566213182	35.481279639828	211.519817597139	743.164475135125	94.943907789092	229.773341199612	867.045379416505	39.308030041451	193.456595456347	850.254354400715	1087.189683630541	11.994563794302	1024.635863733254	891.712997610067	-23.643276136863	760.775973260182	1134.522899485955	651.855076219950	844.350407898386	889.450254102018	685.026866038763	
54	22.353642857143	657.846239484296	1003.397764609034	373.198165801317	838.426432166646	1420.806520718701	175.196751313776	938.641134996776	1367.832280548774	342.629605299313	849.876365164961	1452.588098729326	509.523090269349	813.013893315040	1491.721922462965	334.924150501945	885.704242082686	937.526978636054	491.693302010893	872.994896769473	966.653935141708	218.458043536498	944.146204424854	744.589596293176	457.871204879557	876.411714369816	627.661156097331	521.185940849889	959.433124402684	584.462210204588	440.100886931360	971.834860603044	496.698440213349	448.318739230409	888.810037942610	738.796416018119	233.935779858296	773.620258010872	638.735601116195	174.871457862685	845.292252496697	545.997115668349	228.374624014482	834.329314095697	474.848190888646	232.526245640434	793.332231883614	410.866314885604	226.757974563229	679.584138954190	315.532892500594	184.225676934611	720.482302671455	193.889303597578	245.324174793062	945.800689284782	405.994583929802	457.176150338272	878.743506361132	299.873114821201	520.309447150715	925.750307600317	205.942456006358	460.213986400810	801.049643134500	37.023144904490	432.517689454063	970.532363360528	96.129270135447	469.262649810161	884.101845963696	31.854106524874	507.622105518018	1091.606687098260	47.686856377864	497.060124552919	578.200367614734	49.966367437708	296.415437478753	645.249528450962	39.249122830778	211.493472111699	734.390022755445	96.292402937863	229.275653098147	855.915719037931	38.411442391008	193.693857323723	848.452414888293	1091.974366565055	15.236849745151	1018.228050040091	894.247689683718	-27.819624648113	769.602002755017	1131.657167810520	661.351747102249	868.619728092911	892.534719632101	691.716743759655	
55	22.378428571429	657.248673175284	1003.191104725488	379.985081307004	834.657271169857	1423.107812220484	183.370533950286	936.560449280938	1369.052723028393	349.445104188522	848.786739188513	1452.073725467674	517.707875019499	810.497022901697	1492.525622394349	343.759161659743	886.398653010894	937.816633469030	496.441679350693	871.244977510292	967.499768236363	223.490758067047	942.806872861402	743.545036926782	461.825316864880	873.170971229116	627.484498474869	524.424551364370	955.100863679015	583.475539616194	442.862176436609	965.266053721340	495.518372300838	450.165627843235	891.166111749560	740.299477462316	238.231173128235	779.303824864183	638.325641447841	178.414798032901	853.563733605586	546.412991800660	230.980227435821	843.463487980826	473.147675905015	233.536373829068	798.729361815030	409.968599319473	228.235678232840	680.918623784199	320.096481673960	185.917252383317	716.742438948843	196.602112422577	245.585534511867	938.820331671207	404.884435351494	458.837872606492	871.412750196904	299.298994269188	521.997002099668	916.409886802123	205.334182699877	460.659058707032	789.519868707233	38.293685295556	432.621258061857	959.374589919552	95.706826532316	469.093453152617	872.364385612741	32.563738921564	507.708513827732	1079.977992877845	45.990132760824	496.867428541372	568.997247047164	59.240293263396	295.993965053096	635.290942361096	44.790350574309	211.505101280929	726.188241983546	98.454080346099	228.728807761415	844.501318052099	37.332661928935	194.040222075784	845.863492678413	1097.385933001444	18.272383698600	1010.780722086471	897.774941923226	-33.030504521434	779.211157548259	1129.314472043937	671.265996886901	893.883332539274	897.328041022273	698.234281155416	
56	22.403214285714	656.290064999244	1003.234302871950	387.059952375928	830.620111474306	1425.564341681735	191.575835936150	934.346745393480	1370.325488979903	356.133133772688	847.892633540470	1451.662737836515	525.860670507741	808.050129962131	1493.481116543901	352.656474776674	886.768288704173	938.382209440786	501.244776689360	868.919392364030	968.354753278267	228.620221286402	940.869177593183	742.832109134366	466.146494673265	869.468454350158	627.683505656851	528.163118867175	950.276824253303	582.803718972805	446.119348716848	958.388520743005	494.687813304457	452.634056803920	894.025234785035	742.461560879351	242.774520650569	786.491459254362	638.131974285266	181.883448031731	863.924560087087	547.519555647668	233.510662592388	854.919864837919	471.979028730005	234.350884774621	806.274372799443	409.496809315906	229.562694036890	684.187872340540	325.722709626419	187.504415099948	714.330795295169	200.413411463531	245.780300024706	931.470430400866	404.191645637837	461.030184725000	863.586998766645	299.080792489595	524.130719296381	906.800327552088	205.078650883471	461.589835034890	777.804141497623	39.559741622894	433.077684947171	948.078590927279	95.559486091757	469.325287403351	860.561329740113	33.299805737665	508.092586286620	1068.313993579207	44.702777296869	496.953212803478	560.567214324429	70.979872901916	295.614121362128	625.814877228659	52.176101574958	211.552974573000	718.820157386519	101.535528022867	228.161455558455	833.106925207479	36.132193561979	194.439718670979	842.281634645160	1103.172536697614	21.123437602851	1002.371096541979	902.243664025107	-38.957784930766	789.460949457553	1127.528254368550	681.381123790031	919.586532081532	903.770892284940	704.400183533570	
